{
	"asset": {
		"generator": "Blocks 4.0.1RC0 SVR",
		"version": "1.1",
		"copyright": "Unknown"
	},
	"buffers": {
		"model": {
			"byteLength": 69460,
			"type": "arraybuffer",
			"uri": "model.bin"
		}
	},
	"accessors": {
		"accessor_position_m0-PolyGlass24_-24588": {
			"bufferView": "vec3BufferView",
			"byteOffset": 0,
			"byteStride": 12,
			"componentType": 5126,
			"count": 304,
			"max": [ 0.6013792, 2.186082, -0.3558918 ],
			"min": [ 0.3708361, 2.022346, -0.5864348 ],
			"type": "VEC3"
		 },
		"accessor_normal_m0-PolyGlass24_-24588": {
			"bufferView": "vec3BufferView",
			"byteOffset": 3648,
			"byteStride": 12,
			"componentType": 5126,
			"count": 304,
			"max": [ 0.9659261, 0.8634202, 0.965926 ],
			"min": [ -0.9659261, -1, -0.9659263 ],
			"type": "VEC3"
		 },
		"accessor_color_m0-PolyGlass24_-24588": {
			"bufferView": "vec4BufferView",
			"byteOffset": 0,
			"byteStride": 16,
			"componentType": 5126,
			"count": 304,
			"max": [ 1, 1, 1, 1 ],
			"min": [ 1, 1, 1, 1 ],
			"type": "VEC4"
		 },
		"accessor_indices_0_m0-PolyGlass24_-24588": {
			"bufferView": "ushortBufferView",
			"byteOffset": 0,
			"byteStride": 0,
			"componentType": 5123,
			"count": 462,
			"max": [ 303 ],
			"min": [ 0 ],
			"type": "SCALAR"
		 },
		"accessor_position_m1-PolyPaper3_-24594": {
			"bufferView": "vec3BufferView",
			"byteOffset": 7296,
			"byteStride": 12,
			"componentType": 5126,
			"count": 1308,
			"max": [ 0.6061076, 2.206082, -0.3511621 ],
			"min": [ 0.3661076, 1.366082, -0.5911621 ],
			"type": "VEC3"
		 },
		"accessor_normal_m1-PolyPaper3_-24594": {
			"bufferView": "vec3BufferView",
			"byteOffset": 22992,
			"byteStride": 12,
			"componentType": 5126,
			"count": 1308,
			"max": [ 0.9687364, 1, 0.9659264 ],
			"min": [ -0.9687364, -1, -0.9659264 ],
			"type": "VEC3"
		 },
		"accessor_color_m1-PolyPaper3_-24594": {
			"bufferView": "vec4BufferView",
			"byteOffset": 4864,
			"byteStride": 16,
			"componentType": 5126,
			"count": 1308,
			"max": [ 1, 1, 1, 1 ],
			"min": [ 0.5019608, 0.8705882, 0.9176471, 1 ],
			"type": "VEC4"
		 },
		"accessor_indices_0_m1-PolyPaper3_-24594": {
			"bufferView": "ushortBufferView",
			"byteOffset": 924,
			"byteStride": 0,
			"componentType": 5123,
			"count": 2028,
			"max": [ 1307 ],
			"min": [ 0 ],
			"type": "SCALAR"
		 }
	},
	"bufferViews": {
		"ushortBufferView": {
			"buffer": "model",
			"byteLength": 4980,
			"byteOffset": 0,
			"target": 34963
		},
		"vec3BufferView": {
			"buffer": "model",
			"byteLength": 38688,
			"byteOffset": 4980,
			"target": 34962
		},
		"vec4BufferView": {
			"buffer": "model",
			"byteLength": 25792,
			"byteOffset": 43668,
			"target": 34962
		}
	},
	"meshes": {
		"mesh_m0-PolyGlass24_-24588": {
			"name": "mesh_m0-PolyGlass24_-24588",
			"primitives": [
				{
					"attributes": {
						"POSITION": "accessor_position_m0-PolyGlass24_-24588",
						"NORMAL": "accessor_normal_m0-PolyGlass24_-24588",
						"COLOR": "accessor_color_m0-PolyGlass24_-24588"
					},
					"indices": "accessor_indices_0_m0-PolyGlass24_-24588",
					"material": "material_mat24",
					"mode": 4
				}
			]
		},
		"mesh_m1-PolyPaper3_-24594": {
			"name": "mesh_m1-PolyPaper3_-24594",
			"primitives": [
				{
					"attributes": {
						"POSITION": "accessor_position_m1-PolyPaper3_-24594",
						"NORMAL": "accessor_normal_m1-PolyPaper3_-24594",
						"COLOR": "accessor_color_m1-PolyPaper3_-24594"
					},
					"indices": "accessor_indices_0_m1-PolyPaper3_-24594",
					"material": "material_mat3",
					"mode": 4
				}
			]
		}
	},
	"shaders": {
		"vertex_mat24": {
			"type": 35633,
			"uri": "https://vr.google.com/shaders/w/glassVS.glsl"
		},
		"fragment_mat24": {
			"type": 35632,
			"uri": "https://vr.google.com/shaders/w/glassFS.glsl"
		},
		"vertex_mat3": {
			"type": 35633,
			"uri": "https://vr.google.com/shaders/w/vs.glsl"
		},
		"fragment_mat3": {
			"type": 35632,
			"uri": "https://vr.google.com/shaders/w/fs.glsl"
		}
	},
	"programs": {
		"program_mat24": {
			"attributes": [
				"a_position",
				"a_normal",
				"a_color"				
			],
			"vertexShader": "vertex_mat24",
			"fragmentShader": "fragment_mat24"
		},
		"program_mat3": {
			"attributes": [
				"a_position",
				"a_normal",
				"a_color"				
			],
			"vertexShader": "vertex_mat3",
			"fragmentShader": "fragment_mat3"
		}
	},
	"techniques": {
		"technique_mat24": {
			"program": "program_mat24",
			"extras": {"gvrss" : "https://vr.google.com/shaders/w/gvrss/glass.json"},
			"parameters": {
				"position": {
					"type": 35665,
					"semantic": "POSITION"
				},
				"normal": {
					"type": 35665,
					"semantic": "NORMAL"
				},
				"color": {
					"type": 35666,
					"semantic": "COLOR"
				},
				"modelViewMatrix": {
					"type": 35676,
					"semantic": "MODELVIEW"
				},
				"projectionMatrix": {
					"type": 35676,
					"semantic": "PROJECTION"
				},
				"normalMatrix": {
					"type": 35675,
					"semantic": "MODELVIEWINVERSETRANSPOSE"
				},
				"color": {
					"type": 35666
				},
				"roughness": {
					"type": 5126
				},
				"metallic": {
					"type": 5126
				},
				"light0Pos": {
					"type": 35666
				},
				"light0Color": {
					"type": 35666
				},
				"light1Pos": {
					"type": 35666
				},
				"light1Color": {
					"type": 35666
				}				
			},
			"attributes": {
				"a_position": "position",
				"a_normal": "normal",
				"a_color": "color"				
			},
			"uniforms": {
				"u_modelViewMatrix": "modelViewMatrix",
				"u_projectionMatrix": "projectionMatrix",
				"u_normalMatrix": "normalMatrix",
				"u_color": "color",
				"u_roughness": "roughness",
				"u_metallic": "metallic",
				"u_light0Pos": "light0Pos",
				"u_light0Color": "light0Color",
				"u_light1Pos": "light1Pos",
				"u_light1Color": "light1Color"				
			},
			"states": {
				"enable": [
					2929,
					3042
				],
				"functions": {
					"blendFuncSeparate": [775, 774, 773, 772],
					"depthMask": [true]
				}
			}
		},
		"technique_mat3": {
			"program": "program_mat3",
			"extras": {"gvrss" : "https://vr.google.com/shaders/w/gvrss/paper.json"},
			"parameters": {
				"position": {
					"type": 35665,
					"semantic": "POSITION"
				},
				"normal": {
					"type": 35665,
					"semantic": "NORMAL"
				},
				"color": {
					"type": 35666,
					"semantic": "COLOR"
				},
				"modelViewMatrix": {
					"type": 35676,
					"semantic": "MODELVIEW"
				},
				"projectionMatrix": {
					"type": 35676,
					"semantic": "PROJECTION"
				},
				"normalMatrix": {
					"type": 35675,
					"semantic": "MODELVIEWINVERSETRANSPOSE"
				},
				"color": {
					"type": 35666
				},
				"roughness": {
					"type": 5126
				},
				"metallic": {
					"type": 5126
				},
				"light0Pos": {
					"type": 35666
				},
				"light0Color": {
					"type": 35666
				},
				"light1Pos": {
					"type": 35666
				},
				"light1Color": {
					"type": 35666
				}				
			},
			"attributes": {
				"a_position": "position",
				"a_normal": "normal",
				"a_color": "color"				
			},
			"uniforms": {
				"u_modelViewMatrix": "modelViewMatrix",
				"u_projectionMatrix": "projectionMatrix",
				"u_normalMatrix": "normalMatrix",
				"u_color": "color",
				"u_roughness": "roughness",
				"u_metallic": "metallic",
				"u_light0Pos": "light0Pos",
				"u_light0Color": "light0Color",
				"u_light1Pos": "light1Pos",
				"u_light1Color": "light1Color"				
			},
			"states": {
				"enable": [
					2929,
					2884
				],
				"functions": {
					"cullFace": [1029]
				}
			}
		}
	},
	"materials": {
		"material_mat24": {
			"technique": "technique_mat24",
			"values": {
				"color": [0.8392157, 0.8392157, 0.8392157, 0.2509804],
				"roughness": 0,
				"metallic": 0,
				"light0Pos": [-0.02, 4.11, -0.54, 0],
				"light0Color": [1.28, 1.232075, 1.101177, 0],
				"light1Pos": [0.02, -4.11, 0.54, 0],
				"light1Color": [0.2941177, 0.2953672, 0.32, 0]				
			},
			"name": "material_mat24"
		},
		"material_mat3": {
			"technique": "technique_mat3",
			"values": {
				"color": [0.5019608, 0.8705882, 0.9176471, 1],
				"roughness": 1,
				"metallic": 0,
				"light0Pos": [-0.02, 4.11, -0.54, 0],
				"light0Color": [1.28, 1.232075, 1.101177, 0],
				"light1Pos": [0.02, -4.11, 0.54, 0],
				"light1Color": [0.2941177, 0.2953672, 0.32, 0]				
			},
			"name": "material_mat3"
		}
	},
	"nodes": {
		"node_MeshObject1980153856-PolyGlass24": {
			"name": "node_MeshObject1980153856-PolyGlass24",
			"meshes": [
				"mesh_m0-PolyGlass24_-24588"
			],
			"matrix": [1, 0, 0, 0, 0, 1, 0, 0, 0, 0, 1, 0, 0, 0, 0, 1]
		},
		"node_MeshObject545582080-PolyPaper3": {
			"name": "node_MeshObject545582080-PolyPaper3",
			"meshes": [
				"mesh_m1-PolyPaper3_-24594"
			],
			"matrix": [1, 0, 0, 0, 0, 1, 0, 0, 0, 0, 1, 0, 0, 0, 0, 1]
		}
	},
	"scene": "defaultScene",
	"scenes": {
		"defaultScene": {
			"nodes": [
				"node_MeshObject1980153856-PolyGlass24",
				"node_MeshObject545582080-PolyPaper3"
			],
			"extras": {

			}
		}
	}
}